<?xml version="1.0" encoding="utf-8"?>
<!-- Generator: Adobe Illustrator 15.0.0, SVG Export Plug-In . SVG Version: 6.00 Build 0)  -->
<!DOCTYPE svg PUBLIC "-//W3C//DTD SVG 1.1//EN" "http://www.w3.org/Graphics/SVG/1.1/DTD/svg11.dtd">
<svg version="1.1" id="Layer_1" xmlns="http://www.w3.org/2000/svg" xmlns:xlink="http://www.w3.org/1999/xlink" x="0px" y="0px"
	 width="283.46px" height="113.39px" viewBox="0 0 283.46 113.39" enable-background="new 0 0 283.46 113.39" xml:space="preserve">
<g>
	<path fill="#878F28" d="M56.642,67.693c-1.559,0-2.834,1.275-2.834,2.835v13.379c0,1.56-1.275,2.835-2.834,2.835H36.194
		c-1.559,0-2.834-1.275-2.834-2.835V70.528c0-1.56-1.275-2.835-2.834-2.835h-13.5c-1.559,0-2.834-1.275-2.834-2.835V49.84
		c0-1.559,1.275-2.834,2.834-2.834h13.5c1.559,0,2.834-1.275,2.834-2.834V30.79c0-1.559,1.275-2.834,2.834-2.834h14.779
		c1.559,0,2.834,1.275,2.834,2.834v13.382c0,1.559,1.275,2.834,2.834,2.834h13.5c1.559,0,2.834,1.275,2.834,2.834v15.018
		c0,1.56-1.275,2.835-2.834,2.835H56.642z"/>
</g>
<g>
	<path fill="#D7A02C" d="M125.269,56.875c0,22.867-6.342,29.961-24.704,29.961c-18.276,0-24.62-7.094-24.62-29.961
		s6.343-29.961,24.62-29.961C118.927,26.914,125.269,34.008,125.269,56.875z M93.89,56.875c0,14.855,1.334,16.523,6.593,16.523
		c5.508,0,6.843-1.668,6.843-16.523s-1.335-16.524-6.843-16.524C95.224,40.351,93.89,42.02,93.89,56.875z"/>
</g>
<g>
	<g>
		<path fill="#A92D2D" d="M140.802,85.667c-1.559,0-2.834-1.275-2.834-2.835V52.449c0-1.559,0.022-4.11,0.048-5.668
			c0,0,0.036-2.091,0.62-4.594l-9.497,2.002c-1.525,0.322-3.092-0.65-3.48-2.16l-0.672-2.61c-0.389-1.51,0.374-3.423,1.694-4.252
			l8.887-5.578c1.32-0.829,3.676-1.507,5.235-1.507h12.357c1.56,0,2.835,1.275,2.835,2.834v51.915c0,1.56-1.275,2.835-2.835,2.835
			H140.802z"/>
	</g>
	<g>
		<path fill="#A92D2D" d="M171.35,85.667c-1.56,0-2.835-1.275-2.835-2.835V52.449c0-1.559,0.021-4.11,0.048-5.668
			c0,0,0.036-2.091,0.62-4.594l-10.488,2.044c-1.53,0.298-3.101-0.693-3.489-2.203l-0.671-2.61c-0.389-1.51,0.394-3.389,1.739-4.176
			l9.795-5.729c1.346-0.787,3.722-1.431,5.281-1.431h12.357c1.56,0,2.835,1.275,2.835,2.834v51.915c0,1.56-1.275,2.835-2.835,2.835
			H171.35z"/>
	</g>
	<g>
		<path fill="#A92D2D" d="M201.898,85.667c-1.56,0-2.835-1.275-2.835-2.835V52.449c0-1.559,0.021-4.11,0.048-5.668
			c0,0,0.036-2.091,0.62-4.594l-10.488,2.044c-1.53,0.298-3.101-0.693-3.489-2.203l-0.671-2.61c-0.389-1.51,0.394-3.389,1.739-4.176
			l9.795-5.729c1.346-0.787,3.722-1.431,5.281-1.431h12.357c1.56,0,2.835,1.275,2.835,2.834v51.915c0,1.56-1.275,2.835-2.835,2.835
			H201.898z"/>
	</g>
</g>
<g>
	<path fill="#D7A02C" d="M269.916,56.875c0,22.867-6.342,29.961-24.702,29.961c-18.276,0-24.621-7.094-24.621-29.961
		s6.345-29.961,24.621-29.961C263.574,26.914,269.916,34.008,269.916,56.875z M238.537,56.875c0,14.855,1.336,16.523,6.593,16.523
		c5.509,0,6.843-1.668,6.843-16.523s-1.334-16.524-6.843-16.524C239.873,40.351,238.537,42.02,238.537,56.875z"/>
</g>
</svg>
